<svg version="1" xmlns="http://www.w3.org/2000/svg" width="933.333" height="933.333" viewBox="0 0 700.000000 700.000000"><path d="M325.3 10.5c-17.3 4.8-33 19.4-38 35.1l-1.7 5.4h-31.2c-29.5 0-31.7.1-37 2.1-6.6 2.5-13.5 8.8-15.5 14.2l-1.3 3.6-42.5.3c-41.6.3-42.7.4-46.7 2.5-4.8 2.6-10.7 8.8-13.1 14-1.7 3.6-1.8 17.8-1.8 282.3 0 256.9.1 278.8 1.7 282.1 2.5 5.6 8.8 12 14.3 14.5l5 2.4h444.1l5.2-2.6c5.6-2.8 9-6.3 12.5-12.8l2.2-4.1.3-176.7.2-176.6-2.5-2c-3.3-2.6-3.3-6.7 0-9.8l2.5-2.3v-42.2l-2.5-2.3c-1.8-1.7-2.5-3.4-2.5-6 0-2 .4-3.6.9-3.6s1.7-.7 2.5-1.6c1.4-1.4 1.6-8.8 1.6-66.3 0-54.5-.2-65.5-1.5-69.8-1.9-6.5-8.5-13.9-15-16.9-5-2.4-5.1-2.4-46.5-2.4h-41.6l-1.2-3.3c-1.8-5-6.5-10-12.3-13.2l-5.4-3-32.8-.5-32.9-.5-1.7-5.1C385.9 30.8 373 17.9 357.5 12c-7.7-2.9-24.4-3.7-32.2-1.5zm18.3 44c6.8 2.8 8 12.2 2.2 17-6.9 5.8-16.8 1.3-16.8-7.7.1-4.9 1.4-7.1 5.6-9.3 3.6-1.9 4.6-1.9 9 0zM199 124.7c0 5.7 3.5 11.9 8.4 14.8l4.3 2.5h254.8l4-2.3c4.7-2.6 8.5-9.2 8.5-14.9V121h24.9c21.4 0 25.2.2 26.5 1.6 1.4 1.4 1.6 25.2 1.6 247 0 167.4-.3 246.1-1 247.5-1.1 1.9-4.3 1.9-191.5 1.9-171.7 0-190.5-.2-191.9-1.6-1.4-1.4-1.6-25.2-1.6-247.1 0-227.2.1-245.8 1.7-247.5 1.5-1.6 3.7-1.8 26.5-1.8H199v3.7zm140 521.8h222.6l4.4-2.9 4.3-2.8-.6 3.8c-.9 5.2-3.4 8.4-8.7 11.2l-4.5 2.2-218.5-.2c-205.2-.3-218.7-.4-221.7-2-4-2.3-7.3-6.8-8-11.4l-.6-3.6 4.3 2.8 4.4 2.9H339z"/><path d="M256.4 185.1l-4.1 4.1-3.7-2.6c-5.3-3.6-7.4-3.8-32.2-3.4-21.6.3-22.1.4-25.7 2.8-2 1.3-4.5 4.1-5.6 6.1-2 3.4-2.1 5.3-2.1 28 0 22.9.1 24.6 2.1 27.8 4.9 8.1 8.8 9.1 34.6 9.1 21.4 0 25.6-.7 30.4-4.7 5.4-4.6 5.9-7.1 5.9-29.4v-20.2l6.5-6.8c6.8-7 7.5-9 4.9-12.7-2.4-3.5-6.3-2.9-11 1.9zM289.2 193.6c-2.7 1.9-2.9 6.4-.4 8.7 1.7 1.6 10.2 1.7 102.4 1.7 96.1 0 100.6-.1 102.1-1.8 2.4-2.6 2.1-6.8-.5-8.6-2-1.4-13.3-1.6-101.8-1.6s-99.8.2-101.8 1.6zM288.7 237.8c-2.4 2.6-2.1 6.8.5 8.6 2 1.4 13.3 1.6 101.8 1.6s99.8-.2 101.8-1.6c2.7-1.9 2.9-6.4.4-8.7-1.7-1.6-10.2-1.7-102.4-1.7-96.1 0-100.6.1-102.1 1.8zM256.6 294.4l-3.9 4.4-3.5-2.6-3.5-2.7-25.7-.3c-25.3-.3-25.6-.3-28.9 2-1.9 1.3-4.4 3.6-5.5 5.1-2 2.7-2.1 4-2.1 29 0 26.1 0 26.2 2.4 29.6 4.6 6.4 7.7 7.1 33.6 7.1 22 0 23.3-.1 27.5-2.3 3-1.4 5.3-3.6 6.7-6.2 2.1-3.8 2.3-5.2 2.3-24.4v-20.4l6.5-7.4c6.9-7.9 7.7-10.1 4.5-13.3-3.1-3.1-5.9-2.5-10.4 2.4zM287.8 304.5c-.8 1.8-.9 3.5-.2 5.3l.9 2.7 101.9.3c74.5.1 102.2-.1 103.2-.9 1.7-1.4 1.8-7.1.2-8.7-.9-.9-25.2-1.2-103-1.2H289l-1.2 2.5zM289.2 346.6c-2.6 1.8-3 6.5-.6 8.8 1.4 1.4 12 1.6 102.4 1.6 111 0 104 .4 104-6 0-6.3 5.6-6-104-6-88.5 0-99.8.2-101.8 1.6zM256.6 403.9l-3.9 4-4-2.7-4-2.7-24.1-.3c-23.4-.3-24.2-.2-28.6 2-2.9 1.5-5.3 3.7-6.8 6.3-2.2 3.9-2.2 4.6-2 29.2.3 28 .3 28 7.8 33 3.2 2.2 4 2.3 28.5 2.3s25.3-.1 28.5-2.3c7.3-4.9 7.5-5.4 7.8-29.4l.3-21.6 6.5-7c6.7-7.3 7.8-10.2 4.6-13-3.1-2.8-6.4-2.1-10.6 2.2zM288.7 412.8c-2.4 2.6-2.1 6.8.5 8.6 2 1.4 13.3 1.6 101.8 1.6s99.8-.2 101.8-1.6c2.7-1.9 2.9-6.4.4-8.7-1.7-1.6-10.2-1.7-102.4-1.7-96.1 0-100.6.1-102.1 1.8zM288.6 456.6c-1.9 1.8-2.1 6.5-.4 8.2 1.7 1.7 203.9 1.7 205.6 0 1.7-1.7 1.5-6.4-.4-8.2-1.4-1.4-12-1.6-102.4-1.6s-101 .2-102.4 1.6zM196.1 512c-4.3 1-8 3.8-10.8 8-2.2 3.2-2.3 4-2.3 27.7 0 27.7.5 30 7.7 34.4 3.7 2.4 4.3 2.4 28.9 2.4h25l3.7-2.5c7.1-4.8 7.7-7.5 7.7-33.8 0-23.9-.4-26.8-4.3-31-5-5.4-6.6-5.7-30.2-5.9-12.1-.1-23.5.2-25.4.7zm46.1 12.7c1.6 1.5 1.8 3.6 1.8 23.9 0 21.1-.1 22.4-1.9 23.4-1.2.6-10.3 1-22.6 1s-21.4-.4-22.6-1c-1.8-1-1.9-2.4-1.9-24 0-20.8.2-23 1.8-23.9 1-.6 10.3-1.1 22.6-1.1 18.1 0 21.2.2 22.8 1.7zM289.2 521.6c-2.6 1.8-3 6.5-.6 8.8 1.4 1.4 12 1.6 102.4 1.6 111 0 104 .4 104-6 0-6.3 5.6-6-104-6-88.5 0-99.8.2-101.8 1.6zM288.7 565.8c-2.2 2.4-2.1 6.5.1 8.5 1.7 1.6 10.2 1.7 102.4 1.7 96.1 0 100.6-.1 102.1-1.8 2.2-2.4 2.1-6.5-.1-8.5-1.7-1.6-10.2-1.7-102.4-1.7-96.1 0-100.6.1-102.1 1.8z"/></svg>